<svg width="21" height="21" viewBox="0 0 21 21" fill="none" xmlns="http://www.w3.org/2000/svg">
<g clip-path="url(#clip0)">
<path d="M10.5035 5.10822C7.52586 5.10822 5.11523 7.52147 5.11523 10.4965C5.11523 13.4741 7.52848 15.8847 10.5035 15.8847C13.4811 15.8847 15.8917 13.4715 15.8917 10.4965C15.8917 7.51884 13.4785 5.10822 10.5035 5.10822ZM10.5035 13.9938C8.57061 13.9938 7.00611 12.4285 7.00611 10.4965C7.00611 8.56447 8.57148 6.99909 10.5035 6.99909C12.4355 6.99909 14.0009 8.56447 14.0009 10.4965C14.0017 12.4285 12.4364 13.9938 10.5035 13.9938Z" fill="white"/>
<path d="M14.8292 0.0673061C12.8972 -0.0228189 8.11184 -0.0184439 6.17809 0.0673061C4.47884 0.146931 2.97996 0.557306 1.77159 1.76568C-0.247914 3.78518 0.0102106 6.50643 0.0102106 10.4973C0.0102106 14.5818 -0.217289 17.2401 1.77159 19.2289C3.79896 21.2554 6.55958 20.9903 10.5032 20.9903C14.5492 20.9903 15.9457 20.9929 17.3763 20.4391C19.3215 19.6839 20.7897 17.9453 20.9332 14.8224C21.0242 12.8896 21.019 8.10506 20.9332 6.17131C20.76 2.48493 18.7816 0.249306 14.8292 0.0673061ZM17.8873 17.8928C16.5635 19.2167 14.7268 19.0986 10.4778 19.0986C6.10284 19.0986 4.34846 19.1633 3.06834 17.8797C1.59396 16.4123 1.86084 14.0559 1.86084 10.4833C1.86084 5.64893 1.36471 2.16731 6.21659 1.91881C7.33134 1.87943 7.65946 1.86631 10.4656 1.86631L10.505 1.89256C15.1678 1.89256 18.8262 1.40431 19.0458 6.25531C19.0957 7.36218 19.1071 7.69468 19.1071 10.4964C19.1062 14.8207 19.1885 16.5856 17.8873 17.8928Z" fill="white"/>
<path d="M16.1053 6.15472C16.8007 6.15472 17.3644 5.59099 17.3644 4.8956C17.3644 4.2002 16.8007 3.63647 16.1053 3.63647C15.4099 3.63647 14.8461 4.2002 14.8461 4.8956C14.8461 5.59099 15.4099 6.15472 16.1053 6.15472Z" fill="white"/>
</g>
<defs>
<clipPath id="clip0">
<rect width="21" height="21" fill="white"/>
</clipPath>
</defs>
</svg>
