<svg width="110" height="110" viewBox="0 0 110 110" fill="none" xmlns="http://www.w3.org/2000/svg">
<path d="M93.8908 16.109C83.5027 5.72107 69.691 0 55 0C40.3088 0 26.4969 5.72107 16.109 16.109C5.72086 26.4971 0 40.309 0 55C0 69.691 5.72086 83.5027 16.109 93.8908C26.4971 104.279 40.3088 110 55 110C69.691 110 83.5027 104.279 93.8908 93.8908C104.279 83.5027 110 69.691 110 55C110 40.309 104.279 26.4973 93.8908 16.109ZM55 103.555C28.2268 103.555 6.44531 81.7732 6.44531 55C6.44531 28.2268 28.2268 6.44531 55 6.44531C81.7732 6.44531 103.555 28.2268 103.555 55C103.555 81.7732 81.7732 103.555 55 103.555Z" fill="#25B7A1"/>
<path d="M81.2764 37.3525C80.0181 36.0944 77.9775 36.0944 76.7191 37.3527L48.2612 65.8107L33.2808 50.8303C32.0224 49.572 29.9818 49.572 28.7233 50.8303C27.4647 52.0886 27.4647 54.1292 28.7233 55.3878L45.9823 72.6468C46.6116 73.2761 47.4364 73.5906 48.2609 73.5906C49.0855 73.5906 49.9105 73.2759 50.5396 72.6468L81.2764 41.91C82.535 40.6516 82.535 38.6111 81.2764 37.3525Z" fill="#25B7A1"/>
</svg>
