<svg width="21" height="21" viewBox="0 0 21 21" fill="none" xmlns="http://www.w3.org/2000/svg">
<g clip-path="url(#clip0)">
<path d="M18.8423 6.22388C19.6963 5.6175 20.4146 4.86063 21 3.98913V3.98825C20.2186 4.33038 19.3874 4.55787 18.5194 4.66813C19.4119 4.13525 20.0935 3.29787 20.4137 2.289C19.5816 2.78512 18.6629 3.13512 17.6838 3.33112C16.8936 2.48937 15.7675 1.96875 14.539 1.96875C12.1555 1.96875 10.2366 3.90337 10.2366 6.27462C10.2366 6.61587 10.2655 6.944 10.3364 7.25638C6.75762 7.08138 3.59012 5.36637 1.46213 2.75275C1.09113 3.39762 0.872375 4.13525 0.872375 4.92887C0.872375 6.41988 1.63975 7.74113 2.78513 8.50675C2.093 8.49363 1.41488 8.29238 0.84 7.9765V8.02375C0.84 10.1159 2.33187 11.8536 4.28925 12.2544C3.93837 12.3506 3.55687 12.3961 3.1605 12.3961C2.88488 12.3961 2.60663 12.3804 2.34588 12.3226C2.90325 14.0271 4.487 15.281 6.36825 15.3221C4.9035 16.4675 3.04325 17.1579 1.02988 17.1579C0.67725 17.1579 0.338625 17.1421 0 17.0992C1.9075 18.3286 4.16675 19.0312 6.6045 19.0312C14.2021 19.0312 19.1537 12.6927 18.8423 6.22388Z" fill="white"/>
</g>
<defs>
<clipPath id="clip0">
<rect width="21" height="21" fill="white"/>
</clipPath>
</defs>
</svg>
